<?xml version="1.0" encoding="utf-8"?>
<!-- Generator: Adobe Illustrator 21.0.0, SVG Export Plug-In . SVG Version: 6.00 Build 0)  -->
<svg version="1.1" id="Layer_1" xmlns="http://www.w3.org/2000/svg" xmlns:xlink="http://www.w3.org/1999/xlink" x="0px" y="0px"
	 viewBox="0 0 16 16" style="enable-background:new 0 0 16 16;" xml:space="preserve">
<style type="text/css">
	.st0{fill:#FFFFFF;}
</style>
<path class="st0" d="M11.8,5.4l-0.7-2.9C11,1.8,10.4,1.4,9.6,1.4H6.2c-0.7,0-1.3,0.5-1.5,1.2L4,5.4H1l1.9,8c0.1,0.7,0.7,1.2,1.5,1.2
	h7c0.7,0,1.3-0.5,1.5-1.2l1.9-8L11.8,5.4z M7.4,10.5v3H6.4l-0.5-3H7.4z M5.6,9.5l-0.5-3h2.4v3L5.6,9.5z M8.5,10.5h1.7l-0.5,3H8.5
	L8.5,10.5L8.5,10.5z M8.5,9.5v-3h2.4l-0.5,3L8.5,9.5z M11.9,6.4h1.7l-0.8,3.1h-1.5L11.9,6.4z M5.7,2.8c0-0.2,0.3-0.4,0.5-0.4h3.4
	c0.3,0,0.5,0.1,0.5,0.4l0.6,2.7H5L5.7,2.8z M4,6.4l0.5,3H3l-0.7-3H4z M4,13.1l-0.7-2.7h1.5l0.5,3H4.4C4.2,13.6,4,13.4,4,13.1z
	 M11.9,13.1c0,0.2-0.3,0.4-0.5,0.4h-0.9l0.5-3h1.5L11.9,13.1z"/>
</svg>
