<?xml version="1.0" encoding="utf-8"?>
<!-- Generator: Adobe Illustrator 21.0.0, SVG Export Plug-In . SVG Version: 6.00 Build 0)  -->
<svg version="1.1" id="Layer_1" xmlns="http://www.w3.org/2000/svg" xmlns:xlink="http://www.w3.org/1999/xlink" x="0px" y="0px"
	 viewBox="0 0 16 16" style="enable-background:new 0 0 16 16;" xml:space="preserve">
<style type="text/css">
	.st0{fill:#FFFFFF;}
</style>
<g>
	<path class="st0" d="M8.9,10.4c0-0.5,0-0.8,0-1.3C9,9,9.4,8.2,9.5,7.6c0.2,0,0.5-0.2,0.5-0.8c0-0.3-0.1-0.5-0.3-0.6
		c0.3-0.8,0.8-3.5-1.1-3.7C8.4,2.1,7.9,1.9,7.3,1.9c-2.7,0-3,2-2.4,4.3c-0.1,0-0.3,0.3-0.3,0.6c0.1,0.7,0.3,0.8,0.5,0.8
		C5.2,8.2,5.6,9,5.8,9.1c0,0.4,0,0.8,0,1.3c-0.5,1.4-4.1,1-4.2,3.8h11.4C12.9,11.4,9.4,11.8,8.9,10.4z"/>
	<path class="st0" d="M14.5,7.5c0.1,0.1,0.1,0.2,0.1,0.3c0,0.1,0,0.2-0.1,0.3c-0.1,0.1-0.2,0.1-0.3,0.1h-1.1v1c0,0.1,0,0.3-0.1,0.4
		c-0.1,0.1-0.2,0.1-0.4,0.1c-0.1,0-0.3,0-0.4-0.1c-0.1-0.1-0.1-0.2-0.1-0.4v-1h-1.1c-0.1,0-0.2,0-0.3-0.1c-0.1-0.1-0.1-0.2-0.1-0.3
		c0-0.1,0-0.2,0.1-0.3c0.1-0.1,0.2-0.1,0.3-0.1h1.1V6.2c0-0.1,0-0.3,0.1-0.4c0.1-0.1,0.2-0.1,0.4-0.1c0.1,0,0.3,0,0.4,0.1
		c0.1,0.1,0.1,0.2,0.1,0.4v1.2h1.1C14.4,7.4,14.4,7.4,14.5,7.5z"/>
</g>
</svg>
